<svg width="116" height="75" viewBox="0 0 116 75" fill="none" xmlns="http://www.w3.org/2000/svg">
<g id="Logo">
<path id="Vector" d="M89.8551 21.3931C89.6059 21.3945 89.3611 21.3277 89.1467 21.1997C88.9323 21.0718 88.7565 20.8876 88.6381 20.6668C85.7252 15.2535 81.4149 10.733 76.1626 7.58293C70.9102 4.43281 64.9108 2.76993 58.7978 2.76993C52.6849 2.76993 46.6854 4.43281 41.4331 7.58293C36.1808 10.733 31.8705 15.2535 28.9576 20.6668C28.7773 20.9779 28.4839 21.206 28.1394 21.303C27.795 21.4 27.4266 21.3581 27.1123 21.1862C26.798 21.0144 26.5625 20.726 26.4555 20.3823C26.3486 20.0385 26.3787 19.6664 26.5395 19.3446C29.6889 13.4933 34.3487 8.60717 40.0266 5.20226C45.7045 1.79735 52.1899 0 58.7978 0C65.4058 0 71.8912 1.79735 77.5691 5.20226C83.247 8.60717 87.9067 13.4933 91.0562 19.3446C91.1697 19.5557 91.2268 19.7928 91.222 20.0328C91.2171 20.2728 91.1505 20.5074 91.0286 20.7137C90.9068 20.9199 90.7338 21.0908 90.5267 21.2095C90.3196 21.3283 90.0855 21.3908 89.8472 21.3911L89.8551 21.3931Z" fill="#F8C84A"/>
<path id="Vector_2" d="M0.618131 42.0414V38.4079H17.4395C19.1684 38.4079 19.3895 37.6896 19.3895 37.0637V34.6561C19.3895 34.0301 19.1684 33.3118 17.4395 33.3118H6.3368C5.37405 33.3312 4.41351 33.2116 3.48443 32.9567C2.75735 32.7571 2.07916 32.408 1.49256 31.9315C0.981387 31.5029 0.586613 30.9506 0.345245 30.3264C0.107005 29.6824 -0.00985847 28.9993 0.000650737 28.3121V27.2046C-0.00695762 26.5197 0.111919 25.8394 0.35122 25.1982C0.592609 24.5735 0.988175 24.0211 1.50053 23.5932C2.08609 23.1146 2.76458 22.7647 3.4924 22.5659C4.42168 22.312 5.38207 22.1924 6.34476 22.2108H22.7379V25.8463H6.3368C4.60785 25.8463 4.38675 26.5646 4.38675 27.1885V28.3502C4.38675 28.9762 4.60785 29.6944 6.3368 29.6944H17.4395C18.4022 29.676 19.3626 29.7956 20.2919 30.0495C21.0189 30.2492 21.6971 30.5982 22.2837 31.0748C22.7939 31.5048 23.189 32.0566 23.433 32.6798C23.6705 33.3214 23.7887 34.0015 23.7816 34.6862V37.0376C23.7887 37.7222 23.6705 38.4024 23.433 39.0439C23.19 39.6677 22.7947 40.2198 22.2837 40.649C21.698 41.1273 21.0195 41.4772 20.2919 41.6762C19.3626 41.9302 18.4022 42.0497 17.4395 42.0313L0.618131 42.0414Z" fill="white"/>
<path id="Vector_3" d="M37.3131 42.04C36.3505 42.0584 35.3901 41.9388 34.4608 41.6849C33.7337 41.4853 33.0555 41.1362 32.4689 40.6597C31.9588 40.2297 31.5637 39.6779 31.3196 39.0546C31.0821 38.4131 30.9639 37.7329 30.971 37.0483V27.2173C30.9637 26.5326 31.0819 25.8524 31.3196 25.2109C31.5624 24.587 31.9578 24.0349 32.4689 23.6059C33.0553 23.1286 33.7335 22.7789 34.4608 22.5786C35.3901 22.3247 36.3505 22.2051 37.3131 22.2235H49.7823C50.745 22.2051 51.7053 22.3247 52.6346 22.5786C53.3623 22.7776 54.0408 23.1275 54.6265 23.6059C55.137 24.0355 55.5322 24.5874 55.7758 25.2109C56.0129 25.8526 56.1311 26.5326 56.1244 27.2173V37.0483C56.1313 37.7329 56.0131 38.413 55.7758 39.0546C55.5327 39.6784 55.1374 40.2304 54.6265 40.6597C54.041 41.1384 53.3625 41.4883 52.6346 41.6869C51.7053 41.9408 50.745 42.0604 49.7823 42.042L37.3131 42.04ZM37.3131 25.8329C35.5842 25.8329 35.3611 26.5512 35.3611 27.1751V37.0623C35.3611 37.6883 35.5842 38.4066 37.3131 38.4066H49.7823C51.5112 38.4066 51.7343 37.6883 51.7343 37.0623V27.1751C51.7343 26.5512 51.5112 25.8329 49.7823 25.8329H37.3131Z" fill="white"/>
<path id="Vector_4" d="M65.3438 42.0408V22.2002H69.7558V38.4073H85.0673V42.0408H65.3438Z" fill="white"/>
<path id="Vector_5" d="M97.0631 42.0401C96.1024 42.0579 95.144 41.9383 94.2167 41.685C93.4891 41.4855 92.8108 41.1357 92.2248 40.6577C91.7139 40.2289 91.3191 39.6767 91.0775 39.0527C90.8383 38.4115 90.7195 37.7312 90.7269 37.0463V27.2153C90.7193 26.5304 90.8382 25.8501 91.0775 25.209C91.3189 24.5842 91.7144 24.0318 92.2268 23.6039C92.813 23.1264 93.4913 22.7766 94.2187 22.5767C95.1479 22.3227 96.1083 22.2032 97.071 22.2216H109.534C110.497 22.2034 111.457 22.323 112.387 22.5767C113.114 22.7759 113.793 23.1257 114.378 23.6039C114.89 24.0328 115.285 24.5849 115.528 25.209C115.767 25.8501 115.886 26.5304 115.878 27.2153V37.0463C115.886 37.7312 115.767 38.4115 115.528 39.0527C115.285 39.6768 114.89 40.229 114.378 40.6577C113.792 41.135 113.114 41.4842 112.387 41.6829C111.458 41.9367 110.498 42.0563 109.536 42.0381L97.0631 42.0401ZM97.0631 25.833C95.3341 25.833 95.113 26.5512 95.113 27.1752V37.0624C95.113 37.6883 95.3341 38.4066 97.0631 38.4066H109.534C111.263 38.4066 111.484 37.6883 111.484 37.0624V27.1752C111.484 26.5512 111.263 25.833 109.534 25.833H97.0631Z" fill="white"/>
<path id="Vector_6" d="M44.9594 57.897L40.4657 50.8267L35.8984 57.897H32.9902L39.6132 47.8613H41.3123L47.8934 57.897H44.9594Z" fill="white"/>
<path id="Vector_7" d="M50.4452 57.897L43.8223 47.8613H46.7702L51.3257 54.9316L55.8313 47.8613H58.7255L52.1463 57.897H50.4452Z" fill="white"/>
<path id="Vector_8" d="M64.1772 57.897V50.0462H59.3848V47.8613H71.3858V50.0462H66.7228V57.897H64.1772Z" fill="white"/>
<path id="Vector_9" d="M75.3042 57.896C74.8175 57.9044 74.332 57.8436 73.8621 57.7154C73.4833 57.6117 73.1299 57.43 72.8243 57.1817C72.5501 56.9499 72.3378 56.6526 72.2069 56.317C72.0819 55.981 72.0197 55.6245 72.0236 55.2657V50.4966C72.0197 50.1378 72.0819 49.7814 72.2069 49.4453C72.3378 49.1097 72.5501 48.8124 72.8243 48.5806C73.1294 48.3302 73.4828 48.1464 73.8621 48.0409C74.3318 47.9117 74.8174 47.8509 75.3042 47.8603H81.3436C81.8304 47.8509 82.316 47.9117 82.7857 48.0409C83.1652 48.146 83.5186 48.3298 83.8235 48.5806C84.0985 48.8117 84.311 49.1092 84.4409 49.4453C84.5659 49.7814 84.628 50.1378 84.6242 50.4966V55.2597C84.628 55.6185 84.5659 55.9749 84.4409 56.311C84.311 56.6472 84.0985 56.9447 83.8235 57.1757C83.5182 57.4257 83.1648 57.6095 82.7857 57.7154C82.3158 57.8436 81.8303 57.9044 81.3436 57.896H75.3042ZM75.3042 50.0452C74.5712 50.0452 74.5712 50.3201 74.5712 50.4826V55.2717C74.5712 55.4362 74.5712 55.7091 75.3042 55.7091H81.3436C82.0786 55.7091 82.0786 55.4362 82.0786 55.2717V50.4826C82.0786 50.3201 82.0786 50.0452 81.3436 50.0452H75.3042Z" fill="white"/>
<path id="Vector_10" d="M58.8078 74.9955C51.4035 74.9958 44.1724 72.7396 38.0648 68.5235C31.9572 64.3074 27.2589 58.3286 24.5874 51.3729C24.522 51.2033 24.4904 51.0223 24.4945 50.8403C24.4985 50.6583 24.5381 50.479 24.611 50.3124C24.7582 49.976 25.032 49.7123 25.3722 49.5793C25.7124 49.4463 26.0912 49.4548 26.4251 49.6031C26.7591 49.7513 27.0209 50.0271 27.1529 50.3698C32.1705 63.443 44.8926 72.2287 58.8078 72.2287C72.723 72.2287 85.4531 63.443 90.4606 50.3738C90.526 50.204 90.624 50.0488 90.7489 49.9171C90.8738 49.7855 91.0233 49.6799 91.1887 49.6064C91.3542 49.5329 91.5324 49.4929 91.7132 49.4888C91.894 49.4847 92.0738 49.5164 92.2423 49.5823C92.4109 49.6482 92.565 49.7468 92.6957 49.8727C92.8264 49.9985 92.9313 50.1491 93.0042 50.3157C93.0772 50.4824 93.1169 50.6619 93.121 50.8439C93.1251 51.026 93.0935 51.2072 93.0281 51.377C90.3559 58.3321 85.6575 64.3104 79.55 68.5264C73.4426 72.7424 66.2119 74.9989 58.8078 74.9995V74.9955Z" fill="#F8C84A"/>
</g>
</svg>
