<svg width="164" height="24" viewBox="0 0 164 24" fill="none" xmlns="http://www.w3.org/2000/svg">
<path fill-rule="evenodd" clip-rule="evenodd" d="M41.367 12.4377C41.6937 8.43154 38.5418 5.40828 35.7475 3.69565C34.7064 3.08639 33.6297 2.55725 32.5249 2.11209C27.2883 0.170883 21.7346 -0.442858 16.2622 0.314986C11.19 1.09937 6.23697 2.44466 2.3611 6.41603C0.511451 8.35203 -0.570088 11.2611 0.312799 14.0559C1.49587 17.4316 4.64777 19.6904 7.45977 21.0058C15.7766 24.7936 27.0863 24.6546 35.1383 20.3258C37.8973 18.7621 40.983 16.1609 41.367 12.4377ZM23.9583 19.0506C24.6221 17.6884 25.3117 16.2737 25.0248 14.5971C24.9015 14.2839 24.7083 14.0118 24.4638 13.8073C24.2194 13.6029 23.9321 13.4731 23.6298 13.4305C22.2216 13.222 20.8443 13.6638 19.573 14.0758L19.1242 14.2443C15.8547 15.4716 12.5728 16.7036 9.79942 19.2337C9.72844 19.2939 9.67528 19.3768 9.64693 19.4716C9.61857 19.5664 9.61633 19.6685 9.6405 19.7648C9.72574 19.9115 9.85625 20.0177 10.0069 20.0627C13.2918 21.1659 16.6968 21.7523 20.1248 21.8051C21.6875 21.9839 22.9853 20.7974 23.7755 19.4272C23.8357 19.302 23.8969 19.1765 23.9583 19.0506ZM39.5924 12.81C40.0824 10.3279 38.6213 8.25277 36.9923 6.7635C36.8681 6.67164 36.7477 6.56862 36.6272 6.46548C36.2853 6.17303 35.942 5.87925 35.5047 5.83526C35.3936 5.88095 35.2949 5.95779 35.2177 6.05862C34.5865 7.6223 33.9022 9.2158 33.1694 10.7697C31.6088 14.3169 29.6618 17.632 27.3733 20.6385L27.3336 20.8421C27.36 21.0058 27.5322 21.0058 27.6381 21.0058C29.2681 20.7651 30.8678 20.3137 32.4057 19.6605C35.231 18.4195 38.7758 16.4735 39.5924 12.81ZM14.0152 3.09003L14.0682 2.86666C13.9862 2.69553 13.7905 2.69881 13.612 2.70208C13.5886 2.70244 13.5654 2.70281 13.5429 2.70281C11.823 3.0207 10.1366 3.5364 8.51041 4.24176C5.80436 5.50257 2.55975 7.41385 1.75632 10.9632C1.27073 13.6788 3.00561 15.9672 4.92588 17.387C5.02629 17.4382 5.12855 17.5172 5.23241 17.5974C5.52127 17.8204 5.82256 18.0531 6.13102 17.7245C8.27644 12.6312 10.5587 7.50317 14.0152 3.09003ZM31.3889 3.66644C31.3282 3.63893 31.267 3.61105 31.2094 3.57651C27.8134 2.48356 24.2972 1.93539 20.7649 1.94823C19.0609 1.97805 17.8249 3.7651 17.1274 5.28914C16.6021 6.50039 16.0017 7.95002 16.4431 9.33506C16.5549 9.55418 16.7047 9.74579 16.8837 9.8985C17.0626 10.0512 17.2671 10.1617 17.485 10.2236C18.8965 10.5707 20.2045 10.1518 21.4839 9.74204C21.833 9.63017 22.1799 9.51903 22.5262 9.42438C25.7046 8.25774 28.8212 6.94227 31.5405 4.53457C31.562 4.50391 31.5871 4.47228 31.6129 4.4398C31.7249 4.29885 31.8509 4.14032 31.7612 3.95877C31.6828 3.80012 31.5376 3.73407 31.3889 3.66644Z" fill="#343C42"/>
<path fill-rule="evenodd" clip-rule="evenodd" d="M156.857 21.1002V2.60851L145.128 2.63336C142.475 2.63336 141.553 4.04312 141.553 6.60474V21.1002H145.128V15.7885H153.282V21.1002H156.857ZM146.55 6.00409H153.282L153.264 12.1746H145.111V7.93511C145.111 6.39616 145.424 6.0785 146.55 6.00409Z" fill="#343C42"/>
<path fill-rule="evenodd" clip-rule="evenodd" d="M137.977 16.6076V6.59977C137.977 4.78278 137.447 2.60354 134.406 2.60354H123.127V21.1002H134.406C136.388 21.1002 137.977 19.7946 137.977 16.6076ZM134.275 7.02941C134.346 7.24078 134.375 7.46669 134.361 7.69187L134.375 15.7836C134.375 16.5332 134.264 17.4763 132.865 17.5558H126.685V6.00409H132.865C133.065 5.98942 133.266 6.02299 133.454 6.10274C133.642 6.18237 133.812 6.30635 133.954 6.46621C134.095 6.62595 134.205 6.81804 134.275 7.02941Z" fill="#343C42"/>
<path d="M53.8466 2.60354H50.2577L50.2709 21.1002H53.8466V13.5497H61.8412V21.1002H65.4169V2.60354H61.8412V9.9208H53.8466V2.60354Z" fill="#343C42"/>
<path d="M76.0115 10.164L71.5309 2.60354H67.1915L74.2237 14.4284V21.1002H77.7994V14.4284L84.7697 2.60354H80.4259L76.0115 10.164Z" fill="#343C42"/>
<path d="M116.368 2.60354H104.847V21.1002H108.422V6.00905H114.695C115.808 6.00905 115.98 6.34162 115.98 7.93511V21.1002H119.551V6.59977C119.6 2.86666 118.01 2.60354 116.368 2.60354Z" fill="#343C42"/>
<path d="M164 21.1002V2.60354L160.424 2.60851V21.1002H164Z" fill="#343C42"/>
<path d="M98.0881 21.1002H86.5708V2.60354H90.1421V17.5806H96.4194C97.5275 17.5806 97.6996 17.392 97.6996 15.8084V2.60354H101.275V16.6324C101.319 20.3506 100.379 21.1002 98.0881 21.1002Z" fill="#343C42"/>
</svg>
