<svg width="66" height="33" viewBox="0 0 66 33" fill="none" xmlns="http://www.w3.org/2000/svg">
<path fill-rule="evenodd" clip-rule="evenodd" d="M22.2286 32.8405C23.0383 31.3824 25.2731 26.0885 26.2589 24.0525C27.2691 21.963 32.6648 9.73446 32.9939 9.36443L43.0291 32.9979C50.3978 31.9083 61.1646 28.167 64.725 21.5552C69.3905 12.8947 60.3427 6.0089 52.2759 3.16356C46.2017 1.05439 39.8319 -0.0143061 33.421 0.000144607C26.8574 0.011167 20.1009 0.83312 14.3884 2.89115C10.4546 4.30831 6.75795 6.11598 3.84047 8.87472C-0.0979872 12.583 -1.45417 17.7272 1.90568 22.6558C2.28235 23.2049 2.69886 23.7239 3.15166 24.2084C4.51703 25.5452 4.55836 25.6256 6.15333 26.7892C8.16771 28.2567 10.7959 29.5779 13.4256 30.5541C14.8905 31.0989 20.7147 32.935 22.2286 32.8405ZM17.6029 24.9579C16.0232 24.6713 13.1792 23.3329 11.8475 22.6101C10.3489 21.7961 8.32691 20.4277 7.28298 19.157C4.08538 15.2393 4.7451 11.4776 8.40956 8.17086C14.2706 2.89115 25.466 1.33385 33.421 1.32755C38.0804 1.32755 43.1485 1.99992 47.4084 3.2171C49.3966 3.77288 51.3325 4.51065 53.1928 5.42157C55.619 6.62458 58.3237 8.47634 59.7181 10.9327C60.251 11.8916 60.5533 12.9676 60.5998 14.071C60.7131 17.3604 58.1737 19.8435 55.9128 21.4481C55.1066 22.0006 54.2649 22.4962 53.3933 22.9314C52.2392 23.5282 48.9788 24.9642 47.6257 25.1358C46.3537 23.6132 45.1873 22.0433 43.9796 20.4765L34.9272 8.78969C34.5996 8.37714 33.3965 6.69544 33.0413 6.50963C32.7781 7.04186 27.9809 12.4727 27.2462 13.4663C26.5114 14.4599 23.4363 17.9382 22.4 19.1932L17.6029 24.9579Z" fill="#343C42"/>
</svg>
