<svg width="24" height="24" viewBox="0 0 24 24" fill="none" xmlns="http://www.w3.org/2000/svg">
<circle cx="12" cy="12" r="12" fill="#F4F4F4"/>
<path d="M10.0005 12C10.0005 10.8955 10.8957 9.99984 12.0002 9.99984C13.1048 9.99984 14.0005 10.8955 14.0005 12C14.0005 13.1045 13.1048 14.0002 12.0002 14.0002C10.8957 14.0002 10.0005 13.1045 10.0005 12ZM8.91918 12C8.91918 13.7016 10.2986 15.0809 12.0002 15.0809C13.7019 15.0809 15.0813 13.7016 15.0813 12C15.0813 10.2984 13.7019 8.91906 12.0002 8.91906C10.2986 8.91906 8.91918 10.2984 8.91918 12ZM14.4832 8.79693C14.4832 9.19435 14.8055 9.51712 15.2034 9.51712C15.6009 9.51712 15.9237 9.19435 15.9237 8.79693C15.9237 8.39952 15.6014 8.07722 15.2034 8.07722C14.8055 8.07722 14.4832 8.39952 14.4832 8.79693ZM9.57591 16.8838C8.99091 16.8572 8.67297 16.7598 8.46165 16.6774C8.18151 16.5683 7.98182 16.4384 7.77148 16.2286C7.56161 16.0187 7.43124 15.8191 7.32267 15.5389C7.24028 15.3276 7.14286 15.0097 7.1162 14.4247C7.08712 13.7922 7.0813 13.6023 7.0813 12C7.0813 10.3977 7.0876 10.2082 7.1162 9.57528C7.14286 8.99031 7.24076 8.67286 7.32267 8.46107C7.43172 8.18094 7.56161 7.98126 7.77148 7.77092C7.98134 7.56107 8.18103 7.43069 8.46165 7.32213C8.67297 7.23974 8.99091 7.14233 9.57591 7.11567C10.2084 7.08659 10.3984 7.08078 12.0002 7.08078C13.6026 7.08078 13.7921 7.08708 14.4251 7.11567C15.0101 7.14233 15.3275 7.24023 15.5393 7.32213C15.8195 7.43069 16.0191 7.56107 16.2295 7.77092C16.4394 7.98078 16.5692 8.18094 16.6783 8.46107C16.7607 8.67237 16.8581 8.99031 16.8848 9.57528C16.9139 10.2082 16.9197 10.3977 16.9197 12C16.9197 13.6018 16.9139 13.7918 16.8848 14.4247C16.8581 15.0097 16.7602 15.3276 16.6783 15.5389C16.5692 15.8191 16.4394 16.0187 16.2295 16.2286C16.0196 16.4384 15.8195 16.5683 15.5393 16.6774C15.328 16.7598 15.0101 16.8572 14.4251 16.8838C13.7926 16.9129 13.6026 16.9187 12.0002 16.9187C10.3984 16.9187 10.2084 16.9129 9.57591 16.8838ZM9.52648 6.03635C8.88768 6.06543 8.45147 6.16672 8.07004 6.31502C7.67551 6.46817 7.34109 6.67367 7.00715 7.00711C6.67369 7.34055 6.46819 7.67496 6.31504 8.06995C6.16673 8.45137 6.06543 8.88756 6.03635 9.52633C6.00679 10.1661 6 10.3706 6 12C6 13.6294 6.00679 13.8339 6.03635 14.4737C6.06543 15.1124 6.16673 15.5486 6.31504 15.93C6.46819 16.3246 6.67321 16.6595 7.00715 16.9929C7.3406 17.3263 7.67503 17.5313 8.07004 17.685C8.45196 17.8333 8.88768 17.9346 9.52648 17.9637C10.1667 17.9927 10.3708 18 12.0002 18C13.6302 18 13.8342 17.9932 14.474 17.9637C15.1128 17.9346 15.549 17.8333 15.9304 17.685C16.325 17.5313 16.6594 17.3263 16.9933 16.9929C17.3268 16.6595 17.5318 16.3246 17.6854 15.93C17.8338 15.5486 17.9355 15.1124 17.9641 14.4737C17.9932 13.8334 18 13.6294 18 12C18 10.3706 17.9932 10.1661 17.9641 9.52633C17.9351 8.88756 17.8338 8.45137 17.6854 8.06995C17.5318 7.67544 17.3268 7.34103 16.9933 7.00711C16.6599 6.67367 16.325 6.46817 15.9309 6.31502C15.549 6.16672 15.1128 6.06494 14.4745 6.03635C13.8347 6.00727 13.6302 6 12.0007 6C10.3708 6 10.1667 6.00679 9.52648 6.03635Z" fill="#343C42"/>
</svg>
