<svg width="85" height="23" viewBox="0 0 85 23" fill="none" xmlns="http://www.w3.org/2000/svg">
<path d="M49.3099 20.0824C49.3099 20.2661 49.3608 20.3735 49.4555 20.3735C49.5294 20.3607 49.5995 20.3274 49.6593 20.2764L76.1489 0.77224C76.5965 0.416361 77.1332 0.233214 77.6796 0.249842H83.5039C84.3976 0.249842 85 0.925036 85 1.93886V14.5487C85 16.0725 84.7033 16.9604 83.513 17.7698L76.4438 22.5911C76.3726 22.6451 76.2906 22.6777 76.2053 22.6861C76.1198 22.6861 76.0361 22.6097 76.0361 22.3289V7.61709C76.0361 7.44365 75.9924 7.32802 75.8904 7.32802C75.8162 7.33816 75.7457 7.37098 75.6866 7.423L56.3299 21.6929C55.8919 22.0316 55.373 22.2103 54.8429 22.205H42.0095C41.1085 22.205 40.5134 21.5298 40.5134 20.5077V2.33737C40.5134 2.20315 40.4624 2.0772 40.3605 2.0772C40.2859 2.08753 40.2154 2.12112 40.1566 2.17425L27.3832 10.865C27.2558 10.9621 27.2213 11.0302 27.2213 11.0984C27.2213 11.1665 27.2467 11.214 27.3323 11.3193L36.46 21.664C36.5783 21.8003 36.6639 21.9056 36.6639 22.0212C36.6639 22.1368 36.5274 22.1947 36.3672 22.1947H28.1222C27.4761 22.1947 26.9755 22.0894 26.6261 21.6929L21.0948 15.4262C21.0736 15.3978 21.0474 15.3745 21.018 15.3579C20.9886 15.3412 20.9566 15.3314 20.9237 15.3292C20.8642 15.3335 20.8063 15.3533 20.7545 15.387L11.5066 21.6929C11.0653 22.0299 10.5422 22.2017 10.0105 22.1843H1.50339C0.593349 22.1843 0 21.5112 0 20.4974V8.1271C0 6.59501 0.296675 5.71746 1.49611 4.90806L8.59992 0.0681388C8.65414 0.0273889 8.71699 0.00386034 8.78193 0C8.89296 0 8.95302 0.125953 8.95302 0.412962V16.9686C8.95302 17.1421 8.98578 17.2205 9.09681 17.2205C9.17305 17.2057 9.24564 17.1726 9.30976 17.1235L33.3076 0.743332C33.7731 0.386406 34.3281 0.210352 34.8893 0.241583H47.8119C48.7056 0.241583 49.308 0.916776 49.308 1.92853L49.2989 20.0824H49.3099Z" fill="#343C42"/>
</svg>
