<svg width="145" height="27" viewBox="0 0 145 27" fill="none" xmlns="http://www.w3.org/2000/svg">
<path d="M10.7646 13.177C11.3926 12.1882 16.7408 4.5249 18.6143 2.1496V2.17109C18.9021 1.80566 18.5777 1.42948 18.1642 1.42948C7.19558 1.65519 2.81543 8.43179 2.73694 13.3382C2.73694 18.8412 6.80309 25.2577 17.8869 25.2577C23.3398 25.2577 27.4636 23.6133 29.8656 21.3347H32.6391C29.8917 24.414 25.1453 26.8108 17.8869 26.8108C4.81449 26.8108 0 19.6204 0 13.435C0 7.71167 4.78309 0 17.8555 0C19.9208 0.000339528 21.9802 0.225514 23.9992 0.671749C24.8993 0.865212 25.1976 1.44023 24.7475 2.04212C23.0782 4.19171 21.4925 6.28219 19.886 8.4909C18.2186 10.7886 16.6995 13.196 15.3384 15.6974C14.993 16.3262 15.129 17.4332 16.0815 17.4332H32.0164C32.7801 16.2494 33.1744 14.8547 33.1467 13.435C33.1467 8.59838 30.9017 5.11066 25.475 2.46666L26.2442 1.3435C33.0892 3.76179 35.7895 9.16265 35.7895 13.435C35.7562 15.6644 35.0965 17.8366 33.8899 19.6903C33.7702 19.9297 33.5839 20.127 33.3546 20.2572C33.1253 20.3873 32.8635 20.4444 32.6025 20.4212H16.2228C15.9669 20.4212 15.7067 20.4253 15.4443 20.4296C13.6671 20.4581 11.7838 20.4884 10.393 19.2335C10.0533 18.909 9.79282 18.5068 9.63279 18.0595C9.47276 17.6123 9.41767 17.1326 9.47199 16.6594C9.50863 16.0199 9.61329 15.1009 10.7646 13.177Z" fill="#343C42"/>
<path d="M139.351 15.8983C139.11 15.6379 138.786 15.4751 138.438 15.4395V15.4502L123.968 15.504C123.67 15.504 123.502 15.332 123.502 15.0472C123.552 13.0699 124.347 11.1895 125.719 9.80147C127.091 8.41341 128.934 7.62578 130.86 7.60419H143.603L143.639 10.1837H131.603C130.342 10.1837 129.091 11.4305 128.934 12.9137H140.813C143.127 12.9137 145 14.6817 145 16.8582C145 19.0347 143.352 20.8403 140.813 20.8027L107.934 20.8833C102.109 20.8833 101.371 18.8251 101.371 15.8533V8.81871C101.02 9.03247 100.665 9.23915 100.31 9.44587C99.6389 9.83684 98.9673 10.228 98.3204 10.6674L93.6733 13.7789L102.732 20.7758H95.8869L89.8688 16.3638L85.1276 19.3195C84.603 19.645 84.1089 20.0017 83.6116 20.3606C83.3945 20.5173 83.1769 20.6744 82.9558 20.8296H76.1527V18.1426H82.0557L87.472 14.6495L79.5438 8.80797V10.2697H76.1684V7.59345L76.1632 7.58807H76.1527V7.5827H85.4782L91.4649 12.0754L96.0753 9.16265C96.6056 8.83663 97.1126 8.46761 97.6197 8.0986C97.8732 7.91409 98.1267 7.72959 98.3831 7.55045H106.154V15.5308C106.154 16.8689 106.636 18.3307 108.97 18.3307H117.568V7.61494H122.278V18.3038H138.181C138.576 18.3258 138.963 18.1858 139.258 17.9148C139.552 17.6437 139.73 17.2636 139.751 16.8582C139.734 16.4993 139.592 16.1587 139.351 15.8983Z" fill="#343C42"/>
<path d="M76.1527 7.58807H67.3506C64.9695 7.58807 63.1327 8.23295 61.7773 9.32924C59.3439 11.3069 58.5641 13.392 58.5903 14.3324H61.7511C60.4453 15.2804 59.458 16.621 58.9252 18.1695H48.5217C46.6483 18.1695 45.4342 16.8045 45.4342 15.4825V7.52358H40.8185V15.7888C40.8185 18.7713 43.5816 20.8296 48.0089 20.8296H76.1475V18.1426H64.98C65.064 17.4294 65.3845 16.7676 65.8877 16.2684C66.3909 15.7693 67.046 15.4633 67.7431 15.4018H76.1527V12.6557H64.8491C64.6974 11.855 66.1522 10.2804 67.2721 10.2804H76.1684V10.2697H76.1527V7.58807Z" fill="#343C42"/>
<path d="M76.1632 12.6557V15.4018H78.4972V12.6557H76.1632Z" fill="#343C42"/>
</svg>
