<svg width="24" height="24" viewBox="0 0 24 24" fill="none" xmlns="http://www.w3.org/2000/svg">
<circle cx="12" cy="12" r="12" fill="#F4F4F4"/>
<path d="M7 7.06481C7 6.75617 7.11262 6.50154 7.33784 6.30093C7.56306 6.10031 7.85586 6 8.21622 6C8.57014 6 8.8565 6.09876 9.07529 6.2963C9.30051 6.5 9.41313 6.76543 9.41313 7.09259C9.41313 7.38889 9.30374 7.6358 9.08494 7.83333C8.85972 8.03704 8.56371 8.13889 8.19691 8.13889H8.18726C7.83333 8.13889 7.54698 8.03704 7.32819 7.83333C7.10939 7.62963 7 7.37345 7 7.06481ZM7.12548 15.1667V8.98148H9.26834V15.1667H7.12548ZM10.4556 15.1667H12.5985V11.713C12.5985 11.4969 12.6242 11.3302 12.6757 11.213C12.7658 11.0031 12.9025 10.8256 13.0859 10.6806C13.2693 10.5355 13.4994 10.463 13.7761 10.463C14.4968 10.463 14.8571 10.929 14.8571 11.8611V15.1667H17V11.6204C17 10.7068 16.7748 10.0139 16.3243 9.54167C15.8739 9.06944 15.2786 8.83333 14.5386 8.83333C13.7085 8.83333 13.0618 9.17593 12.5985 9.86111V9.87963H12.5888L12.5985 9.86111V8.98148H10.4556C10.4685 9.17901 10.4749 9.7932 10.4749 10.8241C10.4749 11.8549 10.4685 13.3025 10.4556 15.1667Z" fill="#343C42"/>
</svg>
