<svg width="110" height="19" viewBox="0 0 110 19" fill="none" xmlns="http://www.w3.org/2000/svg">
<path fill-rule="evenodd" clip-rule="evenodd" d="M22.2738 0H26.1123C26.2127 0 26.309 0.0473462 26.38 0.131623C26.451 0.2159 26.4909 0.330204 26.4909 0.449389V17.9756C26.4909 18.0948 26.451 18.2091 26.38 18.2933C26.309 18.3776 26.2127 18.425 26.1123 18.425H22.2738C22.1734 18.425 22.077 18.3776 22.006 18.2933C21.935 18.2091 21.8952 18.0948 21.8952 17.9756V0.449389C21.8952 0.330204 21.935 0.2159 22.006 0.131623C22.077 0.0473462 22.1734 0 22.2738 0ZM0.378607 0.152101H6.14509C6.45003 0.162368 6.74854 0.258641 7.01593 0.432959C7.28332 0.607278 7.51192 0.854636 7.68282 1.15458L14.8938 14.4081V0.60149C14.8938 0.482305 14.9337 0.368001 15.0047 0.283724C15.0757 0.199447 15.172 0.152101 15.2724 0.152101H18.5634C18.6638 0.152101 18.7601 0.199447 18.8311 0.283724C18.9021 0.368001 18.942 0.482305 18.942 0.60149V18.1069C18.942 18.2261 18.9021 18.3404 18.8311 18.4247C18.7601 18.509 18.6638 18.5563 18.5634 18.5563H12.9425C12.5762 18.584 12.2102 18.497 11.881 18.3041C11.5519 18.1112 11.2712 17.8191 11.067 17.457L4.07731 4.5492V18.1069C4.07731 18.2261 4.03742 18.3404 3.96642 18.4247C3.89542 18.509 3.79912 18.5563 3.6987 18.5563H0.378607C0.278194 18.5563 0.181894 18.509 0.110892 18.4247C0.0398889 18.3404 0 18.2261 0 18.1069L0 0.60149C0 0.482305 0.0398889 0.368001 0.110892 0.283724C0.181894 0.199447 0.278194 0.152101 0.378607 0.152101ZM91.3783 0.152101H97.2031C97.5083 0.164256 97.8068 0.262064 98.0741 0.437513C98.3414 0.612962 98.5699 0.861063 98.7408 1.1615L105.952 14.415V0.60149C105.952 0.482305 105.992 0.368001 106.063 0.283724C106.134 0.199447 106.23 0.152101 106.33 0.152101H109.616C109.717 0.152087 109.813 0.199212 109.885 0.283295C109.957 0.367379 109.998 0.481673 110 0.60149V18.1069C109.998 18.2267 109.957 18.341 109.885 18.4251C109.813 18.5092 109.717 18.5563 109.616 18.5563H104.001C103.637 18.5831 103.275 18.4963 102.949 18.3046C102.623 18.113 102.345 17.8231 102.142 17.464L95.1528 4.55612V18.1069C95.1528 18.2261 95.1129 18.3404 95.0419 18.4247C94.9709 18.509 94.8746 18.5563 94.7742 18.5563H91.3842C91.2838 18.5563 91.1874 18.509 91.1164 18.4247C91.0454 18.3404 91.0056 18.2261 91.0056 18.1069V0.60149C91.0055 0.483493 91.0446 0.370225 91.1144 0.286144C91.1841 0.202063 91.2789 0.153916 91.3783 0.152101ZM75.139 11.0619H81.4297L78.861 4.28648H77.6961L75.139 11.0619ZM82.8509 14.8091H73.7061L72.4655 18.0862C72.4112 18.2162 72.3286 18.3265 72.2261 18.4056C72.1236 18.4847 72.0051 18.5296 71.883 18.5356H68.0503C67.8406 18.5356 67.7416 18.3351 67.8406 18.0862L74.4983 0.566922C74.5501 0.441758 74.6282 0.334608 74.7252 0.255869C74.8221 0.17713 74.9346 0.129476 75.0516 0.117533H81.4938C81.6159 0.123558 81.7344 0.168454 81.8369 0.247518C81.9394 0.326581 82.022 0.436902 82.0763 0.566922L88.7048 18.0724C88.8038 18.3213 88.7048 18.5218 88.5009 18.5218H84.6333C84.5112 18.5157 84.3927 18.4708 84.2902 18.3918C84.1877 18.3127 84.105 18.2024 84.0508 18.0724L82.8509 14.8091ZM46.0154 4.20352H34.6455C34.5795 4.20259 34.514 4.21734 34.4529 4.24689C34.3917 4.27644 34.3362 4.3202 34.2895 4.3756C34.2429 4.431 34.206 4.49691 34.1811 4.56947C34.1562 4.64202 34.1438 4.71976 34.1446 4.79809V5.84206C34.1445 5.99739 34.1957 6.14656 34.2871 6.25768C34.3786 6.36879 34.503 6.43303 34.6338 6.43664C34.6338 6.43664 44.035 7.48752 44.0815 7.529C44.9118 7.76145 45.6514 8.32036 46.1801 9.1149C46.7089 9.90943 46.9957 10.8929 46.9939 11.9054V13.9103C46.9939 16.4407 45.9047 18.5563 42.2118 18.5563H30.0265C29.9415 18.5563 29.86 18.5163 29.7999 18.4449C29.7399 18.3736 29.7061 18.2769 29.7061 18.1761V14.8229C29.7053 14.7727 29.7131 14.7229 29.7289 14.6763C29.7447 14.6298 29.7683 14.5875 29.7982 14.552C29.8281 14.5165 29.8637 14.4885 29.903 14.4697C29.9422 14.4509 29.9842 14.4417 30.0265 14.4427H42.0138C42.0815 14.4437 42.1488 14.4283 42.2114 14.3976C42.274 14.3668 42.3307 14.3213 42.3781 14.2638C42.4255 14.2062 42.4625 14.1379 42.487 14.0629C42.5115 13.9879 42.5229 13.9078 42.5205 13.8274V12.4446C42.5205 12.2869 42.4677 12.1357 42.3738 12.0242C42.2799 11.9127 42.1524 11.85 42.0196 11.85L33.2825 10.9651H33.2184C32.2986 10.9652 31.4158 10.5348 30.7615 9.76728C30.1073 8.99977 29.7343 7.95705 29.7236 6.86529V4.79118C29.7232 3.58208 30.1206 2.42059 30.831 1.55408C31.5415 0.687577 32.5088 0.184536 33.5271 0.152101H46.0154C46.0576 0.151163 46.0997 0.160357 46.1389 0.179134C46.1781 0.197911 46.2137 0.225886 46.2436 0.261384C46.2736 0.296883 46.2971 0.339176 46.3129 0.385734C46.3288 0.432293 46.3365 0.48216 46.3357 0.532353V3.82327C46.3357 3.92412 46.302 4.02083 46.2419 4.09214C46.1818 4.16346 46.1003 4.20352 46.0154 4.20352ZM65.7262 4.20352H54.3564C54.2901 4.2026 54.2243 4.21731 54.1629 4.24678C54.1014 4.27625 54.0455 4.3199 53.9984 4.3752C53.9513 4.43051 53.9138 4.49636 53.8883 4.56895C53.8628 4.64154 53.8496 4.71943 53.8496 4.79809V5.84206C53.8496 5.99856 53.9016 6.14876 53.9943 6.26006C54.087 6.37137 54.2129 6.43482 54.3447 6.43664C54.3447 6.43664 63.74 7.48752 63.7924 7.529C64.6227 7.76145 65.3623 8.32036 65.891 9.1149C66.4197 9.90943 66.7065 10.8929 66.7048 11.9054V13.9103C66.7048 16.4407 65.6156 18.5563 61.9227 18.5563H49.7374C49.6524 18.5563 49.5709 18.5163 49.5108 18.4449C49.4508 18.3736 49.417 18.2769 49.417 18.1761V14.8229C49.417 14.7221 49.4508 14.6254 49.5108 14.5541C49.5709 14.4827 49.6524 14.4427 49.7374 14.4427H61.7421C61.874 14.4391 61.9993 14.3739 62.0909 14.2613C62.1825 14.1486 62.233 13.9977 62.2314 13.8412V12.4446C62.2322 12.3663 62.2198 12.2886 62.1949 12.216C62.17 12.1434 62.1331 12.0775 62.0864 12.0221C62.0398 11.9667 61.9842 11.923 61.9231 11.8934C61.862 11.8639 61.7965 11.8491 61.7305 11.85L53.005 10.9444H52.941C52.0211 10.9444 51.1383 10.514 50.484 9.74654C49.8298 8.97903 49.4569 7.93631 49.4461 6.84454V4.77044C49.4502 3.56726 49.848 2.41302 50.5554 1.55134C51.2629 0.689665 52.2248 0.187954 53.238 0.152101H65.7437C65.786 0.151163 65.828 0.160357 65.8672 0.179134C65.9065 0.197911 65.9421 0.225886 65.972 0.261384C66.0019 0.296883 66.0255 0.339176 66.0413 0.385734C66.0571 0.432293 66.0649 0.48216 66.0641 0.532353V3.82327C66.0641 3.92412 66.0303 4.02083 65.9702 4.09214C65.9102 4.16346 65.8287 4.20352 65.7437 4.20352H65.7262Z" fill="#343C42"/>
</svg>
