<svg width="24" height="24" viewBox="0 0 24 24" fill="none" xmlns="http://www.w3.org/2000/svg">
<circle cx="12" cy="12" r="12" fill="#F4F4F4"/>
<path d="M17 11.6443V9.75328C16.0764 9.75328 15.3715 9.5169 14.9167 9.05747C14.4498 8.53313 14.1883 7.86911 14.1771 7.17978V7.04328L12.3125 7V14.6805C12.2485 15.0157 12.0789 15.3239 11.8264 15.5636C11.574 15.8033 11.2509 15.963 10.9008 16.0211C10.5507 16.0792 10.1905 16.0329 9.86866 15.8885C9.54687 15.744 9.27906 15.5084 9.10136 15.2134C8.92366 14.9184 8.84465 14.5782 8.87498 14.2388C8.90531 13.8994 9.04353 13.577 9.27097 13.3153C9.49842 13.0536 9.80414 12.8651 10.1469 12.7752C10.4896 12.6854 10.8528 12.6985 11.1875 12.8128V10.9818C10.9924 10.9511 10.795 10.9355 10.5972 10.9352C9.88576 10.9352 9.19027 11.1374 8.59871 11.5164C8.00715 11.8954 7.54609 12.4341 7.27382 13.0643C7.00156 13.6946 6.93032 14.3881 7.06912 15.0571C7.20792 15.7262 7.55052 16.3408 8.0536 16.8231C8.55668 17.3055 9.19765 17.634 9.89544 17.7671C10.5932 17.9001 11.3165 17.8318 11.9738 17.5708C12.6311 17.3097 13.1929 16.8677 13.5882 16.3005C13.9835 15.7333 14.1944 15.0664 14.1944 14.3842C14.1941 14.2429 14.1848 14.1017 14.1667 13.9614V10.9152C15.0145 11.4229 16.001 11.6767 17 11.6443Z" fill="#343C42"/>
</svg>
