<svg width="137" height="26" viewBox="0 0 137 26" fill="none" xmlns="http://www.w3.org/2000/svg">
<path fill-rule="evenodd" clip-rule="evenodd" d="M35.9749 12.8914C35.9737 5.57604 28.0712 0 17.9007 0C7.90288 0 0 5.57689 0 12.7267C0 20.0787 7.90289 25.7796 18.0742 25.7796C27.8947 25.7796 35.9737 20.0763 35.9749 12.8914ZM22.1139 9.50827C25.9737 8.95926 28.3839 7.34802 28.3839 5.73679C28.3839 3.41662 23.5615 1.61204 17.7506 1.61204C12.0838 1.61204 7.57924 3.41662 7.57924 5.73679C7.57924 7.34883 9.67118 8.60518 13.5344 9.5091H13.8609C14.4994 4.83287 16.1265 1.80457 18.0742 1.80457C19.8483 1.80457 21.6194 5.22076 22.1139 9.50827ZM19.3541 24.1709L19.3576 24.1674C27.2588 23.6505 33.3887 18.4626 33.3887 12.371C33.4017 10.1703 32.6529 8.04802 31.2967 6.44165V6.63744C31.2967 9.31004 27.7513 11.826 22.5788 12.5341L22.4347 12.7267C22.4347 18.2711 21.4471 22.0391 19.3576 24.1674L19.3541 24.1676V24.1709ZM4.67818 6.28501C4.56684 6.38757 4.52691 6.42435 4.51259 6.4892C4.56675 6.42029 4.62195 6.35222 4.67818 6.28501ZM4.51259 6.4892C4.50458 6.52546 4.50459 6.57049 4.50459 6.64071C4.50459 9.3133 8.03528 11.6661 13.3961 12.5374L13.5344 12.7267V13.0856C13.5344 18.4667 14.6701 22.2064 16.6149 24.1807C8.37659 23.4725 2.55093 18.4765 2.55093 12.1915C2.57375 10.0898 3.27085 8.06907 4.51259 6.4892ZM20.4869 9.87458H15.6351L15.3144 9.68205C15.8087 6.65376 16.7679 4.84592 17.9007 4.84592C19.207 4.84592 19.9926 6.45796 20.4869 9.68205V9.87458ZM20.8047 12.9061C20.6605 17.2104 19.5277 20.2321 18.0742 20.2321C16.4472 20.2321 15.3144 17.2038 15.1673 12.8866H15.3144C15.686 12.8866 16.0871 12.9269 16.5222 12.9706C17.0382 13.0224 17.6021 13.0791 18.2214 13.0791C19.0863 13.125 19.9531 13.0604 20.8047 12.8866V12.9061Z" fill="#343C42"/>
<path d="M53.2635 7.34881H48.094V22.0432H44.3721V7.34881H39.3761V3.96482H53.2635V7.34881Z" fill="#343C42"/>
<path fill-rule="evenodd" clip-rule="evenodd" d="M68.8556 6.28583C70.4628 8.09829 71.3564 10.5435 71.3408 13.0856C71.3692 14.3579 71.169 15.6238 70.7519 16.8095C70.3347 17.9952 69.709 19.0769 68.9111 19.9917C68.1132 20.9064 67.1591 21.6359 66.1045 22.1376C65.0499 22.6392 63.9157 22.9031 62.7682 22.9137C61.6207 22.9243 60.4828 22.6815 59.4207 22.1994C58.3587 21.7173 57.3938 21.0056 56.5823 20.1057C55.7707 19.2058 55.1288 18.1358 54.6939 16.958C54.259 15.7802 54.0398 14.5182 54.0491 13.2455C54.0491 7.70122 57.9447 3.41658 62.767 3.41658C65.059 3.44157 67.2485 4.47337 68.8556 6.28583ZM62.767 19.1748C65.5269 19.1748 67.4452 16.6751 67.4452 13.0856C67.4452 9.50905 65.5269 6.99309 62.767 6.99309C59.8601 6.99309 58.0889 9.496 57.9447 13.0856C57.9447 16.8546 59.8601 19.1748 62.767 19.1748Z" fill="#343C42"/>
<path d="M81.8299 15.4058V22.0432H78.1109V15.4058L71.6585 3.96482H75.8424L79.8821 11.4735L84.0689 3.96482H88.4264L81.8299 15.4058Z" fill="#343C42"/>
<path fill-rule="evenodd" clip-rule="evenodd" d="M105.065 9.37762C105.501 10.5538 105.722 11.8142 105.715 13.0857C105.722 14.3572 105.501 15.6176 105.065 16.7938C104.63 17.97 103.988 19.0387 103.177 19.938C102.367 20.8372 101.404 21.5492 100.343 22.0327C99.2829 22.5162 98.1466 22.7616 97.0001 22.7547C95.872 22.7634 94.7536 22.5234 93.7098 22.0485C92.6661 21.5737 91.7178 20.8736 90.9201 19.9889C90.1224 19.1042 89.4912 18.0524 89.0631 16.8948C88.635 15.7372 88.4186 14.4968 88.4264 13.2456C88.4264 7.70136 92.319 3.41672 97.0001 3.41672C98.1466 3.40979 99.2829 3.65518 100.343 4.13868C101.404 4.62218 102.367 5.33418 103.177 6.23346C103.988 7.13273 104.63 8.20142 105.065 9.37762ZM97.0001 19.1749C99.9129 19.1749 101.678 16.6753 101.678 13.0857C101.678 9.5092 99.9041 6.99324 97.1443 6.99324C94.2373 6.99324 92.319 9.49614 92.319 13.0857C92.319 16.8548 94.0873 19.1749 97.0001 19.1749Z" fill="#343C42"/>
<path d="M120.391 7.34881H115.248V22.0432H111.529V7.34881H106.53V3.96482H120.391V7.34881Z" fill="#343C42"/>
<path d="M130.409 3.98114H130.415L130.403 3.96482L130.409 3.98114Z" fill="#343C42"/>
<path fill-rule="evenodd" clip-rule="evenodd" d="M125.884 3.98114H130.409L137 22.0432H132.99L131.548 18.0979H124.604L123.298 22.0595H119.258L125.884 3.98114ZM130.415 14.8575L128.15 7.89703L125.737 14.8575H130.415Z" fill="#343C42"/>
</svg>
