<svg width="25" height="24" viewBox="0 0 25 24" fill="none" xmlns="http://www.w3.org/2000/svg">
<g id="fluent:person-12-filled">
<path id="Vector" d="M12.5 0.125C11.2402 0.125 10.032 0.625445 9.14124 1.51624C8.25044 2.40704 7.75 3.61522 7.75 4.875C7.75 6.13478 8.25044 7.34296 9.14124 8.23376C10.032 9.12456 11.2402 9.625 12.5 9.625C13.7598 9.625 14.968 9.12456 15.8588 8.23376C16.7496 7.34296 17.25 6.13478 17.25 4.875C17.25 3.61522 16.7496 2.40704 15.8588 1.51624C14.968 0.625445 13.7598 0.125 12.5 0.125ZM18.4375 12H6.5625C5.61767 12 4.71153 12.3753 4.04343 13.0434C3.37533 13.7115 3 14.6177 3 15.5625C3 18.213 4.09012 20.3363 5.8785 21.7731C7.63837 23.1862 9.99913 23.875 12.5 23.875C15.0009 23.875 17.3616 23.1862 19.1215 21.7731C20.9075 20.3363 22 18.213 22 15.5625C22 14.6177 21.6247 13.7115 20.9566 13.0434C20.2885 12.3753 19.3823 12 18.4375 12Z" fill="#343C42"/>
</g>
</svg>
