<svg width="24" height="25" viewBox="0 0 24 25" fill="none" xmlns="http://www.w3.org/2000/svg">
<circle cx="12" cy="12.5" r="12" fill="#F4F4F4"/>
<path d="M12 6C15.3138 6 18 8.6862 18 12C18 15.3138 15.3138 18 12 18C10.9397 18.0017 9.898 17.7211 8.98201 17.187L6.00241 18L6.81361 15.0192C6.27906 14.1029 5.99824 13.0608 6.00001 12C6.00001 8.6862 8.68621 6 12 6ZM9.95521 9.18L9.83521 9.1848C9.75752 9.18953 9.68159 9.20994 9.61201 9.2448C9.54692 9.28166 9.4875 9.32773 9.43561 9.3816C9.36361 9.4494 9.32281 9.5082 9.27901 9.5652C9.05708 9.85374 8.93759 10.208 8.93941 10.572C8.94061 10.866 9.01741 11.1522 9.13741 11.4198C9.38281 11.961 9.78661 12.534 10.3194 13.065C10.4478 13.1928 10.5738 13.3212 10.7094 13.4406C11.3714 14.0235 12.1604 14.4438 13.0134 14.6682L13.3542 14.7204C13.4652 14.7264 13.5762 14.718 13.6878 14.7126C13.8625 14.7036 14.0332 14.6563 14.1876 14.574C14.2662 14.5335 14.3429 14.4895 14.4174 14.442C14.4174 14.442 14.4432 14.4252 14.4924 14.388C14.5734 14.328 14.6232 14.2854 14.6904 14.2152C14.7402 14.1636 14.7834 14.103 14.8164 14.034C14.8632 13.9362 14.91 13.7496 14.9292 13.5942C14.9436 13.4754 14.9394 13.4106 14.9376 13.3704C14.9352 13.3062 14.8818 13.2396 14.8236 13.2114L14.4744 13.0548C14.4744 13.0548 13.9524 12.8274 13.6332 12.6822C13.5998 12.6676 13.564 12.6593 13.5276 12.6576C13.4866 12.6534 13.4451 12.658 13.406 12.6711C13.3668 12.6843 13.331 12.7056 13.3008 12.7338C13.2978 12.7326 13.2576 12.7668 12.8238 13.2924C12.7989 13.3259 12.7646 13.3511 12.7253 13.365C12.686 13.3789 12.6434 13.3808 12.603 13.3704C12.5639 13.3599 12.5256 13.3467 12.4884 13.3308C12.414 13.2996 12.3882 13.2876 12.3372 13.266C11.9928 13.1157 11.674 12.9127 11.3922 12.6642C11.3166 12.5982 11.2464 12.5262 11.1744 12.4566C10.9384 12.2305 10.7326 11.9748 10.5624 11.6958L10.527 11.6388C10.5016 11.6005 10.481 11.5592 10.4658 11.5158C10.443 11.4276 10.5024 11.3568 10.5024 11.3568C10.5024 11.3568 10.6482 11.1972 10.716 11.1108C10.782 11.0268 10.8378 10.9452 10.8738 10.887C10.9446 10.773 10.9668 10.656 10.9296 10.5654C10.7616 10.155 10.5876 9.7464 10.4088 9.3408C10.3734 9.2604 10.2684 9.2028 10.173 9.1914C10.1406 9.1878 10.1082 9.1842 10.0758 9.1818C9.99523 9.17779 9.91449 9.1786 9.83401 9.1842L9.95521 9.18Z" fill="#343C42"/>
</svg>
