<svg width="11" height="7" viewBox="0 0 11 7" fill="none" xmlns="http://www.w3.org/2000/svg">
<g id="g7433">
<path id="Subtract" fill-rule="evenodd" clip-rule="evenodd" d="M9.35828 0.214118C9.80803 0.329412 10.1626 0.667059 10.2837 1.09529C10.5086 1.87765 10.5 3.50824 10.5 3.50824C10.5 3.50824 10.5 5.13059 10.2837 5.91294C10.1626 6.34118 9.80803 6.67882 9.35828 6.79412C8.53662 7 5.24998 7 5.24998 7C5.24998 7 1.97199 7 1.14168 6.78588C0.691925 6.67059 0.337313 6.33294 0.216226 5.90471C0 5.13059 0 3.5 0 3.5C0 3.5 0 1.87765 0.216226 1.09529C0.337313 0.667059 0.700574 0.321176 1.14168 0.205882C1.96334 0 5.24998 0 5.24998 0C5.24998 0 8.53662 0 9.35828 0.214118ZM4.20331 4.99953V2.00188L6.93642 3.5007L4.20331 4.99953Z" fill="#343C42"/>
</g>
</svg>
